<?xml version="1.0" standalone="no"?>
<!DOCTYPE svg PUBLIC "-//W3C//DTD SVG 20010904//EN"
 "http://www.w3.org/TR/2001/REC-SVG-20010904/DTD/svg10.dtd">
<svg version="1.0" xmlns="http://www.w3.org/2000/svg"
 width="146.000000pt" height="91.000000pt" viewBox="0 0 146.000000 91.000000"
 preserveAspectRatio="xMidYMid meet">

<g transform="translate(0.000000,91.000000) scale(0.100000,-0.100000)"
fill="#000000" stroke="none">
<path d="M613 793 c-22 -4 -73 -56 -73 -74 0 -6 -10 -9 -22 -7 -21 3 -23 -1
-23 -36 0 -22 -5 -41 -12 -43 -7 -3 -13 -11 -13 -19 0 -7 -11 -16 -24 -20 -16
-4 -29 -17 -35 -36 l-11 -31 -94 7 c-78 5 -96 4 -103 -8 -6 -11 -31 -16 -93
-18 -115 -4 -105 -22 14 -26 70 -2 97 1 108 11 10 10 30 12 80 8 l66 -6 -14
-40 c-26 -72 -22 -114 15 -172 19 -29 40 -53 47 -53 8 0 16 -12 20 -27 3 -16
7 -33 9 -39 2 -7 -45 -10 -146 -10 -197 1 -203 -16 -9 -26 265 -14 1160 -15
1160 -2 0 8 -67 14 -241 19 -172 5 -238 10 -230 18 6 6 11 24 11 39 0 27 2 28
52 28 70 0 158 42 158 76 0 16 -4 22 -14 18 -20 -8 -46 46 -46 96 0 78 56 62
63 -18 3 -45 3 -44 5 11 2 47 6 62 25 78 l22 18 -32 1 c-23 0 -37 8 -52 29
-12 16 -46 43 -77 61 -33 18 -62 44 -72 62 -24 45 -81 107 -113 124 -21 10
-62 14 -156 13 -70 -1 -138 -4 -150 -6z m355 -151 c13 -46 21 -90 18 -98 -8
-20 -154 -20 -162 0 -3 7 -1 46 3 86 8 72 9 73 43 86 64 24 72 18 98 -74z
m-213 -12 l0 -85 -73 -9 c-99 -12 -102 -7 -66 91 31 83 46 94 114 90 25 -2 25
-3 25 -87z m-221 -395 c3 -9 -1 -18 -9 -21 -16 -6 -45 12 -45 27 0 16 48 10
54 -6z m289 0 c-7 -21 24 -55 51 -55 12 -1 32 -7 46 -15 23 -13 17 -14 -76
-15 -55 0 -156 -3 -224 -7 -103 -5 -122 -4 -118 8 3 9 16 13 41 11 35 -3 36
-3 39 35 3 36 5 38 43 44 22 3 77 7 122 8 70 1 82 -1 76 -14z m102 -5 c19 -8
19 -9 -2 -9 -12 -1 -25 4 -28 9 -7 12 2 12 30 0z"/>
<path d="M297 750 c-48 -3 -87 -9 -87 -15 0 -6 40 -11 95 -13 78 -2 95 0 95
12 0 21 -5 22 -103 16z"/>
<path d="M187 621 c-119 -8 -112 -26 11 -26 77 0 97 3 97 14 0 18 -2 18 -108
12z"/>
<path d="M1290 485 c-11 -13 -1 -15 79 -15 74 0 91 3 91 15 0 12 -15 15 -79
15 -58 0 -82 -4 -91 -15z"/>
<path d="M7 354 c-17 -18 14 -24 119 -24 88 0 115 3 112 13 -5 13 -218 24
-231 11z"/>
<path d="M1390 293 c-57 -22 -30 -114 38 -128 30 -6 32 -5 32 19 0 14 -4 26
-8 26 -5 0 -17 6 -27 14 -16 12 -17 16 -6 29 7 9 19 13 27 10 9 -3 14 2 14 16
0 16 -6 21 -27 20 -16 0 -35 -3 -43 -6z"/>
</g>
</svg>
